External Loads File
version=1
nRows=46
nColumns=13
Range=5.000000e-03-10 seconds
endheader
time 	forceRightX 	forceRightY 	forceRightZ 	pointRightX 	pointRightY 	pointRightZ 	forceLeftX 	forceLeftY 	forceLeftZ 	pointLeftX 	pointLeftY 	pointLeftZ 		
2.505000 45.551822 -121.569592 -0.000000 0.209766 0.197123 -0.188033 -265.409185 548.711728 -0.000000 0.390762 0.460663 -0.447571
2.510000 43.644494 -130.121177 -0.000000 0.206228 0.199907 -0.187939 -270.656589 561.618768 -0.000000 0.393852 0.457698 -0.447553
2.515000 41.653829 -138.128381 -0.000000 0.202601 0.202777 -0.187873 -275.892249 574.407488 -0.000000 0.396815 0.454660 -0.447605
2.520000 39.555875 -145.588242 -0.000000 0.199271 0.205719 -0.187723 -280.684404 587.174555 -0.000000 0.399965 0.451534 -0.447687
2.525000 37.490549 -152.454919 -0.000000 0.195888 0.208829 -0.187769 -285.372895 599.653913 -0.000000 0.403038 0.448299 -0.447605
2.530000 35.473499 -158.728647 -0.000000 0.192618 0.212089 -0.187529 -289.916740 611.781809 -0.000000 0.406096 0.444966 -0.447595
2.535000 33.551267 -164.394769 -0.000000 0.189423 0.215312 -0.187335 -294.514862 623.380949 -0.000000 0.409147 0.441538 -0.447636
2.540000 31.590615 -169.449956 -0.000000 0.186191 0.218628 -0.187162 -298.722458 634.600096 -0.000000 0.412114 0.437996 -0.447722
2.545000 29.600127 -173.827018 -0.000000 0.183246 0.222060 -0.186860 -302.628447 645.389803 -0.000000 0.415094 0.434307 -0.447798
2.550000 27.534458 -177.462960 -0.000000 0.180247 0.225700 -0.186644 -306.101247 655.851959 -0.000000 0.417982 0.430613 -0.447827
2.555000 25.522810 -180.306884 -0.000000 0.177413 0.229298 -0.186306 -309.606159 665.856581 -0.000000 0.420754 0.426860 -0.448010
2.560000 23.362571 -182.421401 -0.000000 0.174667 0.233004 -0.185646 -312.322453 675.925061 -0.000000 0.423564 0.422948 -0.447879
2.565000 21.169626 -183.882979 -0.000000 0.171949 0.236832 -0.185346 -314.598840 686.060422 -0.000000 0.426274 0.418905 -0.447906
2.570000 19.119866 -184.801817 -0.000000 0.169416 0.240750 -0.185125 -317.033157 696.143260 -0.000000 0.428763 0.414867 -0.447927
2.575000 17.049778 -185.319823 -0.000000 0.166906 0.244717 -0.184976 -318.941447 706.588105 -0.000000 0.431174 0.410732 -0.447758
2.580000 14.874575 -185.533744 -0.000000 0.164320 0.248850 -0.184996 -319.889448 717.615045 -0.000000 0.433595 0.406461 -0.447700
2.585000 12.812653 -185.486148 -0.000000 0.161867 0.253032 -0.184957 -320.591398 728.876064 -0.000000 0.436087 0.402199 -0.447706
2.590000 10.937174 -185.219411 -0.000000 0.159543 0.257299 -0.185016 -321.237130 740.235858 -0.000000 0.438259 0.397941 -0.447697
2.595000 9.007699 -184.788740 -0.000000 0.157469 0.261659 -0.184934 -320.838829 752.042012 -0.000000 0.440495 0.393414 -0.447620
2.600000 7.305783 -184.223466 -0.000000 0.155074 0.266059 -0.185298 -320.618462 763.673296 -0.000000 0.442309 0.388945 -0.447893
2.605000 5.414861 -183.588060 -0.000000 0.153414 0.270544 -0.185129 -319.035012 775.678834 -0.000000 0.444621 0.384348 -0.447508
2.610000 3.577697 -182.911591 -0.000000 0.151568 0.275115 -0.185040 -317.322087 787.434332 -0.000000 0.446528 0.379708 -0.447423
2.615000 1.627320 -182.219134 -0.000000 0.149594 0.279825 -0.185458 -314.982170 799.039257 -0.000000 0.448073 0.374921 -0.447672
2.620000 -0.418235 -181.506159 -0.000000 0.148101 0.284510 -0.185391 -312.181336 810.341753 -0.000000 0.449956 0.370179 -0.447510
2.625000 -2.552475 -180.749236 -0.000000 0.146687 0.289342 -0.185293 -308.892913 821.312068 -0.000000 0.451557 0.365359 -0.447422
2.630000 -4.777111 -179.913559 -0.000000 0.145248 0.294250 -0.185463 -304.948767 832.005932 -0.000000 0.453060 0.360413 -0.447274
2.635000 -6.898649 -178.969931 -0.000000 0.144100 0.299205 -0.185456 -301.088830 842.146410 -0.000000 0.454499 0.355486 -0.447223
2.640000 -8.938823 -177.894855 -0.000000 0.142995 0.304203 -0.185478 -297.119591 851.792948 -0.000000 0.455709 0.350488 -0.447128
2.645000 -10.878213 -176.677389 -0.000000 0.142056 0.309277 -0.185621 -293.008197 860.942755 -0.000000 0.456873 0.345404 -0.447124
2.650000 -12.651275 -175.318706 -0.000000 0.141302 0.314444 -0.185807 -288.893782 869.540503 -0.000000 0.457913 0.340284 -0.447025
2.655000 -14.113391 -173.829809 -0.000000 0.140610 0.319555 -0.186008 -285.390897 877.392836 -0.000000 0.458796 0.335178 -0.446710
2.660000 -15.471279 -172.187981 -0.000000 0.140145 0.324773 -0.186014 -281.562474 884.837624 -0.000000 0.459549 0.329922 -0.446936
2.665000 -16.654352 -170.375537 -0.000000 0.139850 0.330062 -0.186206 -278.037651 891.702225 -0.000000 0.460245 0.324703 -0.446927
2.670000 -17.733185 -168.347419 -0.000000 0.139679 0.335437 -0.186321 -274.697816 898.053780 -0.000000 0.460689 0.319505 -0.446873
2.675000 -18.687673 -166.070447 -0.000000 0.139684 0.340726 -0.186545 -271.653555 903.887047 -0.000000 0.461074 0.314200 -0.446824
2.680000 -19.457025 -163.544974 -0.000000 0.139878 0.345979 -0.186726 -269.021667 909.160669 -0.000000 0.461314 0.308920 -0.446801
2.685000 -20.208719 -160.783782 -0.000000 0.140292 0.351438 -0.186878 -265.610678 914.144369 -0.000000 0.461443 0.303592 -0.446862
2.690000 -20.822754 -157.863644 -0.000000 0.140741 0.356910 -0.186924 -261.971816 918.534420 -0.000000 0.461522 0.298258 -0.447214
2.695000 -21.364311 -154.838855 -0.000000 0.141535 0.362303 -0.187525 -257.895174 922.241306 -0.000000 0.461226 0.292911 -0.446724
2.700000 -21.859099 -151.742687 -0.000000 0.142379 0.367684 -0.187828 -253.599058 925.077770 -0.000000 0.460800 0.287665 -0.446727
2.705000 -22.468464 -148.573085 -0.000000 0.143461 0.373113 -0.188120 -248.383076 927.139829 -0.000000 0.460316 0.282368 -0.446700
2.710000 -23.101580 -145.378713 -0.000000 0.144667 0.378444 -0.188500 -242.760803 928.195399 -0.000000 0.459652 0.277068 -0.446735
2.715000 -23.721797 -142.231417 -0.000000 0.146116 0.383757 -0.188894 -236.717997 928.154401 -0.000000 0.458810 0.271899 -0.446732
2.720000 -24.461927 -139.196537 -0.000000 0.147771 0.389192 -0.189292 -229.201178 927.194502 -0.000000 0.457831 0.266622 -0.446716
2.725000 -25.122589 -136.386969 -0.000000 0.149623 0.394449 -0.189736 -221.595867 924.902885 -0.000000 0.456760 0.261396 -0.446721
2.730000 -25.887916 -133.796891 -0.000000 0.151658 0.399957 -0.190119 -212.898609 921.490051 -0.000000 0.455434 0.256346 -0.446695
